<?xml version="1.0" standalone="no"?>
<!DOCTYPE svg PUBLIC "-//W3C//DTD SVG 20010904//EN"
 "http://www.w3.org/TR/2001/REC-SVG-20010904/DTD/svg10.dtd">
<svg version="1.0" xmlns="http://www.w3.org/2000/svg"
 width="1024.000000pt" height="1024.000000pt" viewBox="0 0 1024.000000 1024.000000"
 preserveAspectRatio="xMidYMid meet">
<metadata>
Created by potrace 1.14, written by Peter Selinger 2001-2017
</metadata>
<g transform="translate(0.000000,1024.000000) scale(0.100000,-0.100000)"
fill="#000000" stroke="none">
<path d="M6709 8689 c-91 -5 -117 -11 -172 -37 -107 -50 -183 -132 -221 -238
-12 -34 -15 -212 -20 -1062 -3 -562 -3 -1022 -1 -1022 3 0 50 20 105 45 55 25
103 45 106 45 3 0 67 29 142 64 l137 63 630 -9 c347 -5 658 -6 693 -3 165 15
272 106 322 273 22 72 22 75 17 810 -6 826 -2 789 -80 903 -50 75 -115 122
-206 149 -63 19 -99 20 -706 23 -352 1 -688 -1 -746 -4z m865 -184 c9 -55 3
-65 -34 -65 -25 0 -30 -5 -36 -35 -6 -35 -8 -36 -69 -40 -18 -1 -20 -8 -20
-75 l0 -75 -32 -3 c-33 -3 -33 -3 -33 40 0 24 -3 59 -6 80 -6 35 -7 36 -35 26
-47 -16 -62 -4 -56 43 l5 41 -55 -7 -56 -7 6 39 c4 21 7 46 7 56 0 14 9 17 49
17 l48 0 7 -40 c8 -50 29 -62 104 -58 l57 3 14 47 c14 46 15 47 60 51 25 2 51
4 57 5 7 1 15 -18 18 -43z m-625 29 l31 -6 0 -123 c0 -67 -3 -176 -7 -243 l-6
-121 -206 -5 c-113 -2 -224 -7 -247 -11 l-41 -7 -6 39 c-9 53 -7 318 2 376 5
27 18 58 31 72 23 24 26 25 209 28 102 1 191 3 197 5 6 1 26 -1 43 -4z m1268
-9 c13 -3 30 -17 40 -31 15 -23 18 -71 25 -368 5 -187 7 -570 5 -851 -3 -446
-6 -514 -20 -541 -9 -17 -24 -35 -34 -39 -10 -5 -156 -10 -325 -13 -303 -4
-306 -4 -317 17 -14 25 -53 28 -71 6 -9 -11 -33 -15 -85 -15 -39 0 -75 3 -79
8 -4 4 -27 7 -49 7 -38 0 -42 2 -45 28 -3 25 -1 27 37 27 38 0 40 2 47 35 3
19 4 53 2 75 l-4 40 44 0 45 0 -5 85 -4 85 48 0 48 0 0 -46 c0 -44 1 -45 28
-40 15 3 45 7 67 8 l40 3 3 -52 3 -51 61 5 60 6 -4 -66 c-4 -63 -3 -66 22 -71
14 -2 110 -2 213 1 l189 6 -7 106 c-4 58 -11 111 -16 117 -5 6 -12 31 -15 56
-6 46 -6 46 -38 37 -73 -21 -76 -18 -76 71 l0 80 40 0 c22 0 40 -4 40 -10 0
-5 15 -10 34 -10 30 0 34 4 40 31 13 64 10 69 -39 69 l-45 0 0 61 0 61 40 -4
c39 -3 39 -3 45 37 4 22 5 83 3 135 l-3 95 -36 3 -37 3 -4 -124 c-2 -84 -8
-130 -17 -141 -10 -12 -31 -16 -77 -16 l-64 0 0 -71 0 -70 -42 3 -43 3 -5 103
-5 102 40 2 40 1 -42 4 -42 4 -3 52 -3 52 -36 1 c-48 1 -60 10 -53 40 4 14 1
45 -6 69 -12 42 -14 44 -44 38 -45 -8 -49 -15 -41 -72 6 -42 11 -52 30 -57 13
-3 28 -3 34 0 18 11 35 -128 25 -194 -6 -40 -7 -40 -50 -40 l-44 0 0 109 0
110 -42 3 c-43 3 -43 3 -46 46 l-3 42 -45 0 -44 0 0 -40 c0 -34 -4 -41 -25
-46 -50 -12 -56 -2 -53 88 l3 83 65 -2 c36 -2 91 -5 123 -8 l57 -6 0 110 c0
60 -3 116 -6 125 -7 18 -40 21 -79 6 l-26 -10 3 52 c3 51 2 53 -22 52 -34 -2
-40 10 -40 90 l0 68 39 -4 c43 -4 51 6 51 62 0 24 3 25 40 22 l40 -4 0 88 0
89 262 -3 c145 -1 273 -5 285 -7z m-1072 -229 c-5 -63 -11 -95 -22 -103 -8 -6
-13 -20 -10 -30 3 -10 8 -30 11 -45 5 -21 12 -28 31 -28 24 0 25 3 25 55 l0
55 46 0 47 0 -5 -75 -5 -75 44 0 43 0 0 -64 c0 -35 -3 -78 -6 -95 -6 -28 -10
-31 -45 -31 l-39 0 0 90 c0 88 0 90 -22 86 -13 -3 -39 -7 -59 -11 -32 -5 -38
-10 -43 -39 -4 -19 -13 -37 -21 -40 -8 -3 -15 -17 -15 -30 0 -37 -27 -46 -144
-46 l-106 0 0 -35 0 -35 66 0 66 0 -7 -86 -7 -85 44 3 43 3 5 80 c5 85 3 82
60 77 17 -2 19 -11 22 -74 l3 -73 57 -3 57 -3 3 32 c2 27 9 34 33 41 38 10 42
3 50 -94 l7 -78 72 0 c60 0 74 3 89 21 33 37 52 21 55 -47 l3 -61 -62 -7 c-34
-3 -83 -6 -108 -6 -44 0 -47 -2 -57 -35 -13 -42 -3 -55 40 -54 54 2 80 14 87
39 l6 25 13 -30 c7 -16 12 -54 11 -82 l-3 -53 43 0 42 0 -6 75 -7 76 53 -4 52
-4 0 -37 c-1 -20 -2 -92 -3 -161 l-2 -125 -40 0 -40 0 0 51 0 51 -79 -7 -80
-7 -3 49 -3 48 -82 -4 -82 -3 0 131 c1 129 2 132 23 130 41 -3 56 1 56 15 0
21 -23 26 -112 26 l-80 0 4 -49 3 -49 -46 -10 c-26 -6 -63 -8 -84 -5 l-37 6 4
58 4 59 -53 -7 -53 -6 0 54 c-1 92 -25 160 -51 143 -4 -2 -9 3 -13 11 -3 9
-18 15 -35 15 -28 0 -30 3 -33 42 -3 41 -4 43 -43 50 -22 4 -73 7 -114 7 l-74
1 6 -37 c4 -20 11 -40 18 -43 7 -5 12 -38 13 -81 l1 -74 54 2 c59 3 71 12 71
56 0 24 4 27 33 27 60 0 77 -10 77 -41 0 -33 -27 -49 -81 -49 -27 0 -29 -2
-29 -40 l0 -40 -58 0 -59 0 -6 -97 c-4 -54 -7 -119 -7 -145 l0 -46 153 5 c83
2 179 1 212 -4 l60 -8 -2 -50 c-2 -28 -5 -153 -8 -279 -3 -126 -7 -232 -11
-235 -5 -6 -485 -19 -493 -13 -3 1 -7 289 -9 640 -5 731 -12 680 80 655 68
-18 481 -14 501 6 8 8 14 71 17 195 4 128 10 189 19 199 13 16 49 26 64 19 5
-2 6 -45 2 -96z m340 -199 c4 -18 7 -54 8 -81 2 -52 -15 -75 -47 -63 -13 5
-16 21 -16 80 0 72 10 97 37 97 6 0 15 -15 18 -33z m85 -107 c6 -12 10 -42 8
-68 -3 -44 -5 -47 -33 -50 -33 -4 -55 18 -55 55 0 16 11 30 35 44 41 25 45 34
10 25 -14 -4 -25 -2 -25 4 0 19 49 11 60 -10z m-316 -172 c3 -13 6 -40 6 -60
l0 -38 -51 0 -52 0 7 46 c3 26 6 53 6 60 0 10 13 14 39 14 32 0 40 -4 45 -22z
m-364 -354 l0 -34 50 0 c50 0 50 0 50 -33 0 -44 -15 -57 -65 -57 -45 0 -65 13
-65 43 0 17 -5 19 -36 14 -20 -3 -44 -13 -54 -22 -10 -9 -37 -17 -61 -18 -43
-2 -44 -1 -47 32 -2 19 -1 50 3 68 l6 33 72 1 c40 1 86 5 102 8 40 10 45 6 45
-35z m254 -126 c3 -13 6 -40 6 -60 0 -30 -4 -38 -17 -38 -10 0 -24 -4 -32 -9
-22 -14 5 -74 31 -68 16 5 18 -2 18 -81 0 -48 -4 -104 -9 -124 -8 -36 -8 -38
15 -38 21 0 24 5 24 34 0 26 5 35 21 39 45 12 59 -15 59 -114 l0 -49 -55 0
-55 0 0 -47 c0 -82 -7 -95 -49 -91 l-36 3 -3 180 c-4 193 13 452 30 472 17 21
45 15 52 -9z m101 -128 l0 -45 -42 -3 c-42 -3 -43 -2 -43 28 0 51 16 72 53 68
31 -3 32 -5 32 -48z m721 -16 c-3 -26 -6 -75 -6 -110 l0 -64 -100 0 -100 0 0
110 0 110 106 0 107 0 -7 -46z m-558 -70 c3 -37 0 -42 -20 -46 -40 -7 -48 1
-48 48 0 45 0 45 33 42 30 -3 32 -6 35 -44z m-84 -47 c12 -9 17 -23 14 -42 -3
-27 -7 -30 -40 -33 -33 -3 -38 0 -44 21 -12 52 29 84 70 54z m796 -116 c0 -69
4 -67 -115 -76 -44 -3 -90 -8 -102 -11 -21 -4 -23 -1 -23 36 0 39 1 40 36 40
19 0 43 -4 52 -9 9 -4 29 -11 44 -15 26 -6 27 -4 30 36 3 44 7 47 71 57 4 0 7
-26 7 -58z"/>
<path d="M6550 8273 c0 -93 4 -174 9 -182 7 -11 14 -10 40 5 l31 19 -6 128 -7
129 127 -4 c96 -2 129 -6 135 -17 7 -10 12 -4 20 25 19 68 28 64 -169 64
l-180 0 0 -167z"/>
<path d="M6763 8302 l-113 -3 0 -92 0 -92 109 -3 109 -3 7 63 c4 35 5 79 3 98
l-3 35 -112 -3z"/>
<path d="M7766 8420 c-3 -18 -6 -129 -6 -248 l0 -215 228 7 c125 4 231 11 236
16 6 6 5 19 -2 35 l-12 25 -184 0 c-102 0 -187 3 -189 8 -2 4 1 79 7 167 l11
159 95 -2 c52 -2 114 -5 138 -9 39 -5 43 -8 40 -32 l-3 -26 -107 -3 -108 -3 0
-88 0 -88 77 -7 c42 -3 100 -6 129 -6 l53 0 5 43 c3 23 8 97 12 165 l6 122
-189 0 c-103 0 -197 3 -209 6 -18 5 -22 0 -28 -26z"/>
<path d="M7610 8221 c-18 -5 -27 -17 -34 -44 -11 -44 -9 -46 39 -54 26 -4 40
-2 46 8 26 41 -8 101 -51 90z"/>
<path d="M7766 7858 c-13 -49 -8 -54 52 -64 57 -9 162 0 194 16 19 10 28 -6
28 -50 0 -34 -13 -40 -102 -47 l-68 -6 0 -38 c0 -42 5 -45 57 -30 l32 9 3 -56
3 -57 37 -3 36 -3 7 73 c4 40 5 82 3 93 -2 17 4 21 37 25 l40 5 3 58 c3 52 5
57 25 57 13 0 28 -5 35 -12 9 -9 12 -9 12 0 0 20 -46 32 -120 32 -61 0 -69 -2
-63 -17 5 -13 1 -12 -17 5 -21 19 -35 22 -111 22 -48 0 -94 3 -102 6 -9 3 -17
-3 -21 -18z"/>
<path d="M7506 6888 c-3 -13 -6 -47 -6 -75 0 -52 1 -53 29 -53 17 0 33 -5 37
-11 13 -22 24 16 24 89 l0 72 -39 0 c-32 0 -40 -4 -45 -22z"/>
<path d="M6548 7168 c-2 -7 -2 -100 0 -205 l4 -193 164 0 c147 0 164 2 173 18
20 38 1 44 -143 43 l-136 -2 6 94 c5 65 3 105 -6 132 -21 62 -4 68 168 62
l142 -6 0 25 c0 37 -33 44 -210 44 -117 0 -159 -3 -162 -12z"/>
<path d="M6634 7035 c-12 -30 6 -125 26 -135 10 -6 60 -10 110 -10 l91 0 -3
78 -3 77 -108 3 c-89 2 -108 0 -113 -13z"/>
<path d="M7835 7160 c-4 -6 -3 -24 0 -41 6 -25 11 -30 33 -27 23 3 27 8 30 41
3 35 2 37 -27 37 -16 0 -33 -5 -36 -10z"/>
<path d="M6045 8505 c-8 -14 -21 -35 -28 -47 -36 -60 -39 -97 -38 -403 1 -178
-2 -306 -7 -309 -6 -3 -43 8 -83 25 -86 35 -296 100 -419 128 -133 31 -412 54
-575 48 -446 -19 -895 -158 -1269 -395 -154 -97 -241 -168 -405 -327 -198
-193 -345 -379 -453 -575 -106 -192 -225 -524 -268 -750 -43 -221 -53 -552
-25 -790 60 -518 321 -1019 736 -1414 194 -185 385 -313 662 -446 220 -105
408 -165 677 -214 453 -82 940 -24 1428 172 85 34 125 46 131 38 5 -6 23 -40
41 -76 54 -107 157 -255 237 -340 241 -256 630 -381 950 -305 127 30 301 117
411 205 68 54 179 190 229 278 47 84 98 230 119 338 23 127 15 353 -16 444
-59 173 -138 300 -285 460 l-97 105 49 7 c26 3 67 7 89 7 35 1 47 7 77 40 60
67 61 140 3 207 l-34 39 -285 0 c-157 0 -288 3 -291 6 -6 6 22 149 31 159 2 2
194 7 426 10 l422 5 32 24 c64 48 86 145 46 199 -11 15 -35 37 -53 49 -33 23
-35 23 -427 23 l-394 0 7 83 c3 45 9 84 11 87 3 3 206 7 453 10 l449 5 30 29
c64 62 77 132 35 195 -47 72 -46 72 -461 65 -202 -4 -402 -4 -444 0 l-77 8 -4
81 c-2 45 -4 83 -3 85 1 1 134 5 294 9 328 7 321 5 362 85 23 46 22 94 -5 145
-32 62 -28 61 -395 62 -183 0 -335 2 -337 4 -3 2 -9 29 -14 58 -4 30 -11 62
-15 71 -6 16 20 17 394 18 220 0 424 5 453 10 29 6 71 23 93 39 46 33 105 114
105 143 0 17 -5 19 -27 14 -139 -32 -178 -33 -813 -27 l-635 6 -105 -46 c-58
-26 -223 -103 -367 -173 -145 -69 -266 -126 -269 -126 -4 0 -3 10 0 23 4 12
14 112 22 222 11 144 18 462 23 1140 7 824 9 946 24 988 8 27 13 55 11 62 -6
16 -37 25 -86 25 -29 0 -41 -5 -53 -25z m-867 -830 c196 -21 316 -46 496 -106
158 -52 331 -129 338 -151 2 -7 2 -66 0 -130 l-4 -118 -45 31 c-155 107 -536
231 -795 259 -119 12 -318 13 -413 0 -72 -9 -341 -71 -385 -89 -20 -8 -14 -9
34 -8 34 0 51 4 40 7 -15 6 -12 8 16 13 19 3 65 12 102 20 37 8 65 11 62 6 -3
-5 -18 -9 -35 -9 -16 0 -29 -4 -29 -10 0 -5 -10 -10 -22 -10 -19 0 -20 -2 -8
-10 10 -6 11 -10 3 -10 -7 0 -13 -7 -13 -15 0 -19 -40 -35 -85 -35 -19 0 -37
-4 -40 -10 -3 -5 -14 -10 -23 -10 -37 0 -92 -22 -92 -35 0 -11 -13 -15 -50
-15 -30 0 -50 -4 -50 -11 0 -6 -7 -8 -16 -5 -12 5 -15 2 -10 -10 5 -12 1 -14
-17 -10 -12 3 -16 3 -9 0 30 -14 9 -25 -34 -18 -29 4 -49 3 -53 -4 -3 -5 -24
-13 -46 -16 -22 -3 -34 -3 -27 0 6 3 9 11 5 17 -4 6 0 8 10 4 10 -3 17 -2 17
3 0 6 6 10 14 10 8 0 17 7 20 16 9 23 -9 15 -149 -68 -279 -166 -457 -340
-641 -625 -63 -97 -125 -219 -179 -348 -164 -395 -178 -890 -38 -1310 128
-380 442 -785 783 -1009 239 -158 399 -231 644 -296 449 -120 928 -77 1351
120 96 45 266 153 349 222 31 26 37 28 33 13 -17 -57 -27 -109 -37 -195 -18
-142 -21 -147 -136 -207 -123 -64 -393 -162 -539 -196 -214 -50 -478 -73 -665
-58 -549 46 -1036 254 -1423 608 -280 256 -467 547 -587 911 -109 330 -134
674 -74 1027 59 356 263 798 489 1061 100 116 241 258 317 320 288 233 729
426 1078 473 236 32 373 36 568 16z m-103 -450 c71 -11 112 -25 192 -66 122
-61 183 -103 183 -126 0 -21 -47 -83 -64 -83 -7 0 -30 15 -52 33 -60 51 -112
77 -191 98 -211 53 -367 30 -539 -82 -33 -21 -65 -39 -70 -39 -19 0 -66 58
-62 76 9 47 194 154 308 178 143 30 174 31 295 11z m-1240 -134 c-3 -6 -11
-11 -16 -11 -5 0 -4 6 3 14 14 16 24 13 13 -3z m1214 -96 c68 -9 165 -59 206
-108 l36 -42 -32 -27 c-18 -16 -37 -28 -41 -28 -4 0 -20 12 -35 26 -39 37 -97
61 -179 75 -89 14 -174 -5 -247 -57 l-49 -35 -22 20 c-12 12 -27 21 -34 21
-26 0 -20 22 18 64 50 54 117 84 212 95 73 8 82 7 167 -4z m-14 -225 c35 -21
65 -60 65 -83 0 -24 -49 -61 -86 -63 -52 -5 -154 22 -178 45 -30 31 -13 70 44
99 55 27 112 28 155 2z m546 -346 c76 -22 159 -75 216 -138 27 -30 87 -115
134 -189 l84 -136 153 -1 c166 0 192 -6 231 -56 42 -53 18 -150 -46 -190 -15
-10 -30 -19 -32 -21 -2 -1 25 -34 61 -72 74 -80 121 -162 144 -251 20 -80 23
-332 5 -410 -21 -85 -84 -213 -132 -265 l-44 -48 -2 -139 c-3 -161 -14 -195
-75 -236 -35 -22 -56 -27 -166 -35 -145 -11 -200 -2 -245 41 -47 44 -57 73
-57 168 l0 86 -32 -6 c-18 -4 -401 -9 -850 -13 l-818 -6 0 -76 c0 -60 -5 -86
-22 -121 -36 -70 -66 -80 -236 -80 -161 0 -193 9 -250 74 -50 57 -63 144 -43
284 l8 53 -54 60 c-63 71 -105 150 -133 251 -16 57 -20 103 -20 215 0 124 3
152 25 220 43 135 128 255 205 289 l39 17 -40 29 c-95 69 -104 158 -20 211 33
20 50 22 185 24 l150 2 78 136 c94 164 129 214 177 253 39 31 110 70 151 83
14 4 293 8 621 8 518 1 602 -1 650 -15z m1417 -201 c28 -55 96 -279 116 -385
41 -211 49 -321 43 -540 -5 -196 -6 -209 -45 -358 -55 -211 -131 -400 -199
-493 -38 -51 -119 -100 -190 -113 -21 -4 -46 -21 -69 -48 -20 -22 -73 -78
-117 -123 -111 -115 -121 -112 -59 21 21 45 76 138 121 206 155 234 250 464
293 705 19 113 22 164 22 385 0 298 -15 399 -90 606 -24 68 -44 125 -44 128 0
3 30 6 68 7 37 1 78 5 92 9 39 13 49 11 58 -7z m286 -1909 c85 -21 209 -83
287 -142 239 -182 359 -456 329 -751 -11 -100 -27 -155 -75 -253 -113 -229
-276 -359 -531 -423 -200 -51 -390 -18 -598 104 -152 89 -316 300 -372 476
-48 151 -42 333 17 510 39 117 83 188 142 232 26 19 80 62 121 96 119 99 193
134 333 157 132 22 247 20 347 -6z m-2966 -273 c72 -35 81 -46 62 -81 -10 -18
-13 -18 -73 9 -34 16 -71 32 -83 37 -20 8 -20 11 -7 42 7 18 17 32 21 30 4 -2
40 -18 80 -37z m1376 7 c9 -17 15 -33 13 -34 -6 -6 -143 -72 -162 -78 -16 -5
-23 0 -32 25 -11 30 -11 31 30 49 23 10 60 30 82 44 22 14 43 26 47 26 3 0 14
-14 22 -32z m-1060 -128 c15 -5 67 -15 116 -21 l90 -12 0 -43 c0 -42 0 -43
-27 -34 -16 5 -72 16 -126 26 -103 17 -114 25 -103 69 7 28 13 29 50 15z m686
-30 c0 -36 -2 -39 -32 -44 -18 -3 -60 -10 -92 -16 -33 -5 -77 -10 -98 -10 -37
0 -38 1 -38 34 0 35 0 35 58 41 31 4 84 13 117 20 88 19 85 20 85 -25z"/>
<path d="M4305 7350 c-11 -5 -48 -19 -82 -31 -36 -12 -60 -26 -56 -32 3 -6 1
-7 -5 -3 -12 7 -97 -32 -88 -41 3 -3 17 2 30 11 14 9 36 16 49 16 14 0 30 7
37 15 7 8 18 15 24 15 6 0 38 13 71 29 54 26 70 43 20 21z"/>
<path d="M4344 6272 c-82 -29 -122 -69 -203 -203 -41 -67 -90 -145 -108 -172
-18 -27 -33 -51 -33 -53 0 -2 430 -4 955 -4 525 0 955 4 955 9 0 11 -207 331
-233 359 -12 13 -44 36 -72 50 l-50 27 -580 2 c-534 2 -584 1 -631 -15z"/>
<path d="M6156 5810 c6 -6 21 -6 39 -1 30 9 30 9 -9 10 -26 1 -37 -2 -30 -9z"/>
<path d="M4040 5689 c-290 -21 -479 -161 -521 -386 -14 -73 -5 -268 16 -347
34 -129 121 -233 230 -277 59 -23 65 -23 565 -29 278 -4 795 -1 1150 5 735 12
682 5 778 104 103 106 137 224 130 444 -4 116 -8 140 -33 200 -31 77 -104 164
-169 202 -98 57 -174 77 -306 82 -202 7 -1747 9 -1840 2z m2060 -191 c80 -41
110 -137 71 -225 -22 -48 -53 -71 -113 -85 -37 -8 -49 -6 -97 19 -114 58 -134
181 -44 266 54 50 116 58 183 25z m-2150 -10 c52 -36 73 -71 78 -132 3 -43 0
-62 -18 -94 -40 -71 -139 -104 -209 -68 -40 21 -88 79 -96 116 -29 134 134
253 245 178z m1639 -16 c41 -30 39 -60 -3 -77 -30 -13 -130 -15 -653 -15 -598
0 -619 1 -650 20 -18 11 -33 24 -33 29 0 5 15 22 33 38 l33 29 624 -2 c597 -2
624 -3 649 -22z m80 -228 c41 -35 40 -61 -4 -80 -53 -22 -1402 -21 -1445 1
-38 20 -40 56 -4 84 26 21 34 21 725 21 l697 0 31 -26z m-75 -204 c15 -5 32
-21 38 -35 10 -23 9 -29 -13 -51 l-25 -25 -648 0 c-605 -1 -648 0 -666 16 -41
37 -10 84 63 96 68 11 1222 10 1251 -1z m451 0 c46 0 105 -99 91 -153 -15 -62
-96 -117 -151 -103 -37 9 -92 63 -105 101 -9 29 -8 41 8 79 11 24 30 50 43 57
33 17 72 28 87 23 8 -2 20 -4 27 -4z m-2100 -14 c95 -40 101 -197 9 -241 -82
-38 -157 2 -185 98 -14 49 20 113 73 137 52 24 59 24 103 6z m1453 -195 c30
-16 28 -32 -9 -67 -26 -25 -40 -30 -112 -36 -45 -3 -226 -7 -403 -7 l-320 -1
-41 30 c-42 31 -59 65 -40 77 14 10 471 21 722 18 118 -1 188 -6 203 -14z"/>
<path d="M7000 4181 c-30 -4 -81 -16 -112 -25 -177 -51 -350 -227 -419 -426
-20 -55 -23 -86 -24 -195 0 -119 2 -137 29 -208 70 -190 224 -354 394 -417
264 -99 530 -49 716 136 72 72 117 144 154 246 24 66 26 87 26 218 1 132 -2
151 -25 217 -71 195 -258 373 -453 432 -77 24 -204 33 -286 22z m186 -260 c43
-20 88 -69 148 -164 63 -100 71 -129 71 -257 l0 -115 -39 -70 c-56 -100 -76
-124 -124 -152 -46 -27 -66 -26 -75 6 -4 16 4 29 34 53 50 40 92 114 114 198
40 154 -18 302 -160 406 -33 24 -68 49 -77 56 -12 10 -14 19 -8 36 12 28 58
29 116 3z m-306 -90 c41 -35 47 -45 63 -117 11 -43 32 -112 48 -151 16 -40 29
-82 29 -93 0 -11 -22 -64 -50 -119 -50 -100 -83 -137 -157 -175 -44 -22 -57
-20 -96 14 -39 34 -60 77 -55 111 3 26 102 82 175 100 57 13 78 51 69 122 -4
28 -14 63 -21 78 -14 25 -17 27 -47 17 -18 -6 -48 -17 -66 -26 -31 -14 -33
-14 -56 7 -25 24 -64 118 -67 161 -4 65 0 70 54 96 69 33 116 27 177 -25z
m597 17 c55 -57 110 -188 128 -304 10 -65 -12 -161 -61 -261 -42 -87 -107
-173 -132 -173 -6 0 -19 11 -28 25 -16 25 -16 27 15 70 17 24 46 75 64 112 31
66 32 72 32 204 l0 136 -42 84 c-41 80 -51 118 -36 132 13 14 30 6 60 -25z
m-356 -101 c89 -60 143 -198 120 -309 -21 -98 -128 -219 -166 -188 -22 18 -18
49 10 86 85 111 85 246 0 324 -83 77 -54 148 36 87z"/>
<path d="M4660 8444 c-47 -7 -91 -13 -99 -14 -16 0 -8 -104 16 -182 14 -49 15
-50 47 -44 74 14 240 26 372 26 l142 0 6 31 c3 17 6 69 6 115 l0 84 -202 -1
c-118 -1 -239 -7 -288 -15z"/>
<path d="M5295 8368 c-4 -46 -5 -99 -3 -117 l3 -35 113 -16 c77 -11 116 -12
121 -5 13 16 50 185 44 200 -2 8 -12 17 -21 19 -31 10 -194 36 -222 36 -28 0
-28 -1 -35 -82z"/>
<path d="M4315 8388 c-60 -15 -205 -58 -205 -62 0 -18 38 -122 58 -159 21 -39
30 -47 46 -43 60 17 176 45 209 51 37 6 38 7 32 38 -4 18 -18 67 -32 110 -26
85 -27 85 -108 65z"/>
<path d="M5695 8334 c-4 -22 -13 -68 -20 -104 -7 -36 -10 -68 -7 -72 4 -4 52
-20 107 -36 l100 -30 18 72 c9 39 16 89 15 111 -3 39 -5 41 -60 63 -32 12 -78
25 -102 28 l-45 7 -6 -39z"/>
<path d="M3885 8259 c-27 -11 -83 -34 -123 -51 -72 -31 -74 -32 -68 -61 9 -47
56 -143 80 -166 l22 -21 80 38 c43 21 100 47 127 57 42 16 47 21 47 49 0 17
-16 64 -35 104 -39 82 -46 84 -130 51z"/>
<path d="M3505 8078 c-122 -63 -275 -162 -275 -178 0 -20 61 -144 89 -179 l19
-24 38 30 c22 17 82 55 134 86 123 72 140 85 140 103 0 19 -89 184 -98 184 -4
-1 -25 -10 -47 -22z"/>
<path d="M2753 7836 c-111 -36 -180 -104 -209 -205 -33 -113 1 -236 89 -325
51 -51 112 -71 212 -71 120 1 206 62 266 189 24 50 29 74 29 134 0 41 -6 88
-14 107 -23 53 -101 130 -157 154 -63 28 -161 35 -216 17z m173 -201 c86 -91
36 -235 -82 -235 -88 0 -144 55 -144 140 1 85 49 130 139 130 48 0 57 -3 87
-35z"/>
<path d="M2437 7106 c-58 -91 -111 -202 -104 -219 4 -11 188 -110 193 -104 33
44 174 267 174 275 0 22 -166 122 -203 122 -7 0 -34 -33 -60 -74z"/>
<path d="M2268 6723 c-23 -26 -42 -68 -77 -165 -28 -81 -29 -88 -13 -97 31
-15 170 -53 182 -49 11 3 102 192 117 241 4 13 -7 22 -48 41 -30 12 -67 26
-84 30 -16 4 -37 9 -46 12 -9 2 -23 -4 -31 -13z"/>
<path d="M1778 6414 c-61 -68 -119 -318 -159 -689 -15 -139 -6 -570 16 -743
16 -128 48 -280 65 -313 21 -38 162 -14 168 30 2 12 -11 122 -30 244 -31 207
-33 238 -32 467 1 335 27 545 100 828 19 73 34 139 34 146 0 17 -44 36 -100
43 -36 4 -48 1 -62 -13z"/>
<path d="M2097 6289 c-10 -24 -27 -91 -38 -149 -11 -58 -27 -130 -36 -160 -29
-102 -44 -244 -50 -467 l-6 -223 65 0 c36 0 86 3 112 6 l46 7 0 91 c1 257 29
494 80 671 58 202 58 204 46 213 -17 14 -106 41 -157 48 l-45 6 -17 -43z"/>
<path d="M8226 6038 c-59 -69 -58 -131 5 -217 l29 -41 133 0 c114 0 136 3 165
20 68 42 95 124 63 195 -33 74 -61 85 -223 85 l-136 0 -36 -42z"/>
<path d="M2140 5174 c-19 -2 -64 -7 -99 -10 l-64 -6 7 -86 c7 -95 28 -198 44
-214 10 -10 195 22 209 36 3 3 -3 68 -13 143 -21 148 -18 143 -84 137z"/>
<path d="M2175 4774 c-27 -7 -61 -14 -75 -14 -51 -1 -55 -10 -38 -97 9 -43 27
-104 42 -137 25 -57 27 -58 58 -52 18 3 62 21 98 39 63 32 65 34 63 69 -1 20
-15 74 -30 120 -32 94 -35 96 -118 72z"/>
<path d="M8159 4653 c-15 -2 -39 -17 -55 -34 -56 -59 -40 -206 28 -253 18 -13
53 -16 183 -16 139 0 164 3 191 19 68 41 82 144 30 219 -45 65 -66 72 -218 71
-73 -1 -145 -4 -159 -6z"/>
<path d="M2327 4390 c-58 -18 -137 -63 -137 -78 0 -28 76 -201 113 -258 24
-38 64 -104 88 -148 24 -43 58 -94 74 -113 l30 -35 54 31 c70 41 142 103 137
116 -2 6 -34 53 -71 105 -37 52 -96 156 -132 230 -36 74 -68 141 -72 149 -11
22 -20 22 -84 1z"/>
<path d="M2685 3701 c-147 -67 -207 -287 -124 -453 41 -82 144 -151 244 -164
106 -15 227 44 292 143 35 51 38 64 42 135 4 101 -11 155 -65 228 -34 46 -56
65 -110 92 -59 29 -80 33 -154 35 -65 2 -94 -2 -125 -16z m193 -165 c43 -23
70 -58 81 -106 23 -103 -32 -170 -137 -170 -60 0 -93 23 -116 81 -30 74 -3
146 68 190 37 23 67 24 104 5z"/>
<path d="M3317 3172 c-25 -37 -52 -80 -58 -95 -12 -26 -11 -31 11 -48 60 -46
160 -109 224 -139 l68 -34 19 25 c20 26 29 48 52 121 14 46 14 48 -12 71 -24
22 -185 128 -237 155 -19 10 -25 5 -67 -56z"/>
<path d="M3744 2975 c-21 -32 -54 -130 -54 -160 0 -31 45 -62 170 -116 86 -37
94 -39 110 -24 28 25 62 113 64 164 1 45 0 46 -44 68 -25 12 -87 38 -138 57
l-93 34 -15 -23z"/>
<path d="M6118 2954 c-4 -3 -46 -20 -95 -38 l-88 -33 3 -34 c1 -19 19 -68 40
-109 31 -63 41 -75 60 -73 34 4 234 101 230 112 -1 5 -28 48 -58 95 -49 76
-75 98 -92 80z"/>
<path d="M5715 2811 c-44 -15 -154 -40 -244 -56 -103 -18 -165 -34 -168 -42
-7 -18 23 -193 35 -205 14 -14 157 6 317 44 173 40 207 51 218 70 12 19 -49
218 -67 217 -6 0 -47 -13 -91 -28z"/>
<path d="M4126 2761 c-18 -80 -21 -137 -6 -146 21 -13 177 -55 226 -61 l52 -6
10 33 c6 19 14 66 18 106 8 85 12 82 -138 118 -149 36 -143 38 -162 -44z"/>
<path d="M4546 2732 c-9 -15 -17 -197 -8 -210 8 -12 230 -47 240 -38 2 3 7 56
10 119 l5 113 -96 12 c-112 14 -144 15 -151 4z"/>
<path d="M5023 2713 l-123 -4 0 -83 c0 -46 3 -98 6 -115 l7 -31 132 0 c154 0
146 -6 144 103 -2 92 -10 132 -29 132 -8 1 -70 -1 -137 -2z"/>
<path d="M4105 1910 c-362 -12 -739 -33 -755 -41 -12 -7 218 -15 290 -11 8 0
18 -5 23 -11 6 -9 10 -9 14 1 6 14 43 16 43 2 0 -6 27 -10 60 -10 33 0 60 -4
60 -10 0 -5 -10 -10 -22 -11 -22 -1 -22 -1 2 -9 14 -4 42 -8 63 -9 30 -1 37
-5 37 -21 0 -13 7 -20 20 -20 25 0 27 -36 3 -44 -10 -3 4 -4 31 -2 38 3 45 1
32 -6 -10 -6 -45 -8 -80 -5 -39 4 -52 3 -36 -3 41 -13 140 -12 140 3 0 9 2 9
8 -1 10 -15 232 -28 642 -38 303 -7 1039 10 1147 27 34 5 114 10 178 10 63 1
115 5 115 10 0 5 10 10 23 10 15 1 10 4 -13 9 -30 6 -31 8 -10 10 14 1 28 2
33 1 4 0 7 3 7 9 0 5 16 10 35 10 19 0 35 5 35 10 0 6 -11 10 -25 10 -14 0
-25 5 -25 10 0 6 55 10 146 10 85 0 154 4 165 11 16 8 25 7 38 -5 19 -18 106
-23 96 -6 -3 5 -1 10 4 10 6 0 11 -11 11 -25 0 -14 -4 -25 -10 -25 -5 0 -10 5
-10 10 0 6 -18 10 -40 10 -30 0 -40 -4 -40 -16 0 -14 7 -16 40 -11 22 3 40 2
40 -3 0 -4 7 -11 16 -14 8 -3 13 -2 10 3 -7 10 18 21 42 20 10 -1 7 -4 -8 -9
-22 -7 -19 -8 16 -9 32 -1 41 3 41 17 0 9 -5 20 -11 24 -7 5 -4 8 6 8 11 0 15
5 12 15 -4 8 -1 15 5 15 6 0 11 -13 11 -30 0 -30 1 -30 53 -29 28 1 42 4 29 6
l-23 5 23 20 c19 17 33 19 88 16 46 -4 69 -1 78 8 6 7 8 15 3 18 -14 9 -136
24 -246 31 -55 3 -156 10 -225 15 -69 5 -217 12 -330 15 -113 3 -263 10 -335
15 -147 10 -1450 10 -1770 0z"/>
<path d="M3308 1863 c7 -3 16 -2 19 1 4 3 -2 6 -13 5 -11 0 -14 -3 -6 -6z"/>
<path d="M3065 1840 c-25 -11 1 -11 35 0 20 6 21 8 5 8 -11 0 -29 -3 -40 -8z"/>
<path d="M3488 1843 c7 -3 16 -2 19 1 4 3 -2 6 -13 5 -11 0 -14 -3 -6 -6z"/>
<path d="M6338 1783 c12 -2 22 -9 22 -14 0 -5 27 -9 61 -9 44 0 60 3 57 13 -3
8 -30 12 -84 13 -43 1 -69 0 -56 -3z"/>
<path d="M6423 1723 c9 -2 25 -2 35 0 9 3 1 5 -18 5 -19 0 -27 -2 -17 -5z"/>
<path d="M6493 1723 c9 -2 23 -2 30 0 6 3 -1 5 -18 5 -16 0 -22 -2 -12 -5z"/>
<path d="M3830 1710 c0 -5 5 -10 11 -10 5 0 7 5 4 10 -3 6 -8 10 -11 10 -2 0
-4 -4 -4 -10z"/>
<path d="M3768 1703 c7 -3 16 -2 19 1 4 3 -2 6 -13 5 -11 0 -14 -3 -6 -6z"/>
</g>
</svg>
